<?xml version="1.0" encoding="UTF-8" standalone="no"?>
<svg
   xmlns:dc="http://purl.org/dc/elements/1.1/"
   xmlns:cc="http://creativecommons.org/ns#"
   xmlns:rdf="http://www.w3.org/1999/02/22-rdf-syntax-ns#"
   xmlns:svg="http://www.w3.org/2000/svg"
   xmlns="http://www.w3.org/2000/svg"
   id="svg3389"
   version="1.0"
   height="13.700786pt"
   width="42.411152pt">
  <metadata
     id="metadata3402">
    <rdf:RDF>
      <cc:Work
         rdf:about="">
        <dc:format>image/svg+xml</dc:format>
        <dc:type
           rdf:resource="http://purl.org/dc/dcmitype/StillImage" />
        <dc:title></dc:title>
      </cc:Work>
    </rdf:RDF>
  </metadata>
  <defs
     id="defs3400" />
  <path
     style="fill:#000000;stroke:none"
     d="m 0,0.00278561 0,0.41989776 c 1.2147083,0 1.409202,0 1.409202,0.78429433 l 0,9.4487523 c 0,0.784294 -0.1916922,0.784294 -1.409202,0.784294 l 0,0.419882 5.9654112,0 c 2.2187734,0 3.6588698,-1.579823 3.6588698,-3.1596459 0,-1.5636736 -1.4239471,-2.8991786 -3.2776059,-3.0227278 C 8.0086488,5.3489151 9.1713984,4.2381452 9.1713984,2.9187965 9.1713984,1.4787283 7.7509621,0 5.5125286,0 L 0,0.00278561 Z m 2.5340289,5.54904899 0,-4.4431641 c 0,-0.59260556 0.033008,-0.6803735 0.7239169,-0.6803735 l 2.2082413,0 c 1.7055066,0 2.4652259,1.3930562 2.4652259,2.4736621 0,1.3249588 -1.0532223,2.6498755 -2.9152998,2.6498755 l -2.4820843,0 z M 3.2579458,11.44845 c -0.6881006,0 -0.7211013,-0.08777 -0.7211013,-0.680377 l 0,-4.9339907 3.1898309,0 c 1.7743236,0 2.6386623,1.5910852 2.6386623,2.8689864 0,1.2750926 -0.9822988,2.7453813 -2.8612418,2.7453813"
     id="path14" />
  <path
     style="fill:#000000;stroke:none"
     d="m 12.926462,4.2107616 c 0,-0.7464137 0.08777,-0.8341816 1.346711,-0.8341816 l 0,-0.4198537 c -0.5898,0.016844 -1.494863,0.052668 -1.947746,0.052668 -0.45218,0 -1.357243,-0.033001 -1.947044,-0.052668 l 0,0.4198537 c 1.201368,0 1.286327,0.087768 1.286327,0.8341816 l 0,6.4014354 c 0,0.745676 -0.08215,0.833444 -1.286327,0.833444 l 0,0.419882 c 0.589801,-0.01685 1.494864,-0.04915 1.947044,-0.04915 0.452883,0 1.355137,0.0323 1.947746,0.04915 l 0,-0.419882 c -1.258943,0 -1.346711,-0.08496 -1.346711,-0.833444"
     id="path16" />
  <path
     style="fill:#000000;stroke:none"
     d="m 15.271621,2.9517972 0,0.4191657 c 1.148707,0 1.233666,0.1046544 1.233666,0.817302 l 0,6.4372731 c 0,0.713377 -0.08496,0.817295 -1.233666,0.817295 l 0,0.419881 5.249225,0 c 1.928086,0 3.146305,-1.179601 3.146305,-2.3915003 0,-1.1276425 -1.1136,-2.0818555 -2.625315,-2.2714343 1.234369,-0.2577147 2.224391,-1.0391794 2.224391,-2.0460672 0,-1.0911029 -1.214708,-2.201915 -3.109794,-2.201915 l -4.884812,0 z m 2.3585,4.0724464 0,-2.9040796 c 0,-0.6915973 0.08777,-0.743584 0.702144,-0.743584 l 1.686548,0 c 1.599483,0 1.862787,1.3495619 1.862787,1.7637985 0,0.6220921 -0.455691,1.8838651 -2.284775,1.8838651 l -1.966704,0 z m 0,0.3510717 2.611272,0 c 1.478012,0 1.949852,1.3389877 1.949852,2.0790469 0,0.7927198 -0.572949,1.9912788 -2.158389,1.9912788 l -1.706209,0 c -0.608758,0 -0.693717,-0.05196 -0.693717,-0.75691"
     id="path18" />
  <path
     style="fill:#000000;stroke:none"
     d="m 34.143834,0.03299871 -10.040652,0 -0.293496,3.84563499 0.312454,0 c 0.224686,-2.88018564 0.47184,-3.38433942 3.168071,-3.38433942 0.312454,0 0.820104,0 0.959831,0 0.332113,0.0519839 0.332113,0.26330451 0.332113,0.66353332 l 0,9.4649014 c 0,0.628418 -0.05266,0.820104 -1.517332,0.820104 l -0.493607,0 0,0.419881 c 0.834147,-0.01615 1.703401,-0.033 2.556505,-0.033 0.850296,0 1.722358,0.01685 2.555802,0.033 l 0,-0.419881 -0.485181,0 c -1.442905,0 -1.494863,-0.191686 -1.494863,-0.820104 l 0,-9.4649014 c 0,-0.38407248 0,-0.592607 0.313156,-0.66353332 0.136918,0 0.641759,0 0.954213,0 2.660421,0 2.920917,0.50132414 3.145603,3.38433942 l 0.313156,0"
     id="path20" />
  <path
     style="fill:#000000;stroke:none"
     d="m 42.800561,12.731968 -0.313156,0 c -0.381264,2.578271 -0.60595,3.979749 -3.664487,3.979749 l -2.413267,0 c -0.693718,0 -0.726718,-0.08777 -0.726718,-0.685292 l 0,-4.860237 1.640207,0 c 1.640207,0 1.796083,0.600333 1.796083,2.067813 l 0.280155,0 0,-4.5225066 -0.280155,0 c 0,1.4422026 -0.155876,2.0320036 -1.796083,2.0320036 l -1.640207,0 0,-4.309055 c 0,-0.5863038 0.033,-0.6740718 0.726718,-0.6740718 l 2.37816,0 c 2.690614,0 3.003068,1.0693716 3.247414,3.3674943 l 0.312454,0 -0.417073,-3.8449448 -8.804178,0 0,0.4774505 c 1.23156,0 1.428862,0 1.428862,0.7815138 l 0,9.38273 c 0,0.781485 -0.194494,0.781485 -1.428862,0.781485 l 0,0.419882 9.048523,0"
     id="path22" />
  <path
     style="fill:#000000;stroke:none"
     d="M 47.556179,5.2829207 50.128833,1.5636666 C 50.38652,1.1985379 50.910319,0.44723943 52.337074,0.428297 l 0,-0.41989733 c -0.398115,0.03299871 -1.058832,0.03299871 -1.475905,0.03299871 -0.572949,0 -1.286327,0 -1.71955,-0.03299871 l 0,0.41989733 c 0.5568,0.0519411 0.693718,0.40022531 0.693718,0.6803735 0,0.2078486 -0.08496,0.3482843 -0.208537,0.5209905 L 47.331493,4.9592325 44.75884,1.193651 C 44.638071,1.0040582 44.621219,0.94929099 44.621219,0.89735344 c 0,-0.15659907 0.189579,-0.45289941 0.765337,-0.46905644 l 0,-0.41989733 c -0.5568,0.03299871 -1.407096,0.03299871 -1.980045,0.03299871 -0.450074,0 -1.319327,0 -1.739209,-0.03299871 l 0,0.41989733 c 0.954915,0 1.267369,0.0358276 1.651441,0.5757612 l 3.35414,4.9262318 -3.024834,4.418603 c -0.746379,1.080599 -1.876128,1.099557 -2.208242,1.099557 l 0,0.419882 c 0.397413,-0.033 1.058833,-0.033 1.475906,-0.033 0.469032,0 1.286327,0 1.719549,0.033 l 0,-0.419882 c -0.537842,-0.05196 -0.693717,-0.400222 -0.693717,-0.680377 0,-0.224686 0.08496,-0.348263 0.172727,-0.471841 l 2.78119,-4.0590913 3.024834,4.4459723 c 0.136918,0.192388 0.136918,0.244346 0.136918,0.296305 0,0.136918 -0.155875,0.436031 -0.764634,0.47184 l 0,0.419882 c 0.5568,-0.033 1.407096,-0.033 1.980045,-0.033 0.450074,0 1.319327,0 1.741316,0.033 l 0,-0.419882 c -1.1136,0 -1.289136,-0.08496 -1.63459,-0.575757"
     id="path24" />
</svg>
